# xmcd
#
# Track frame offsets:
# 150
# 20517
# 42042
# 61181
# 86588
# 108800
# 122054
# 140645
# 157769
# 177031
# 202938
# 245611
# 274721
#
# Disc length: 4291 seconds
#
#
# Revision: 2
# Processed by: cddbd v1.5.2PL0 Copyright (c) Steve Scherf et al.
# Submitted via: FreeRIP 2.942 
#
DISCID=a110c10d
DTITLE=Sunset Heights - Texas Tea
DYEAR=1994
DGENRE=Rock
TTITLE0=Man Of The World
TTITLE1=Movin' On
TTITLE2=Dangerous Moves
TTITLE3=Runnin' Blind
TTITLE4=Missing You
TTITLE5=Only Time Will Tell
TTITLE6=Sally Jo
TTITLE7=Save Yourself
TTITLE8=Different Colored Danger
TTITLE9=Politician
TTITLE10=Dreamin'  Girl
TTITLE11=She Left Me
TTITLE12=Whiskey Woman
EXTD=
EXTT0=
EXTT1=
EXTT2=
EXTT3=
EXTT4=
EXTT5=
EXTT6=
EXTT7=
EXTT8=
EXTT9=
EXTT10=
EXTT11=
EXTT12=
PLAYORDER=
